<svg width="100" height="100" viewBox="0 0 125 129" fill="none" xmlns="http://www.w3.org/2000/svg">
<path d="M59.5 3.73205C61.3564 2.66025 63.6436 2.66025 65.5 3.73205L113.627 31.518C115.483 32.5897 116.627 34.5705 116.627 36.7141V92.2859C116.627 94.4295 115.483 96.4103 113.627 97.482L65.5 125.268C63.6436 126.34 61.3564 126.34 59.5 125.268L11.3734 97.482C9.517 96.4103 8.37341 94.4295 8.37341 92.2859V36.7141C8.37341 34.5705 9.51701 32.5897 11.3734 31.518L59.5 3.73205Z" fill="#64ffda" stroke="black" stroke-width="4" stroke-linejoin="bevel"/>
<path d="M27.096 81L42.456 47.4H45.96L61.32 81H57.576L43.464 49.464H44.904L30.792 81H27.096ZM33.144 72.024L34.2 69.144H53.736L54.792 72.024H33.144ZM70.4302 72.648L70.2863 68.328L90.6383 47.4H94.7183L79.8863 62.952L77.8702 65.112L70.4302 72.648ZM67.3582 81V47.4H70.9102V81H67.3582ZM91.5023 81L77.0063 64.296L79.4062 61.704L95.7263 81H91.5023Z" fill="black"/>
<path d="M27.096 81L25.2771 80.1685L27.096 83V81ZM42.456 47.4V45.4L40.6371 46.5685L42.456 47.4ZM45.96 47.4L47.7789 46.5685L45.96 45.4V47.4ZM61.32 81V83L63.139 80.1685L61.32 81ZM57.576 81L55.7504 81.8169L57.576 83V81ZM43.464 49.464V47.464L41.6384 50.2809L43.464 49.464ZM44.904 49.464L46.7296 50.2809L44.904 47.464V49.464ZM30.792 81V83L32.6176 81.8169L30.792 81ZM33.144 72.024L31.2662 71.3355L33.144 74.024V72.024ZM34.2 69.144V67.144L32.3222 68.4555L34.2 69.144ZM53.736 69.144L55.6138 68.4555L53.736 67.144V69.144ZM54.792 72.024V74.024L56.6698 71.3355L54.792 72.024ZM28.9149 81.8315L44.275 48.2315L40.6371 46.5685L25.2771 80.1685L28.9149 81.8315ZM42.456 49.4H45.96V45.4H42.456V49.4ZM44.1411 48.2315L59.5011 81.8315L63.139 80.1685L47.7789 46.5685L44.1411 48.2315ZM61.32 79H57.576V83H61.32V79ZM59.4016 80.1831L45.2896 48.6471L41.6384 50.2809L55.7504 81.8169L59.4016 80.1831ZM43.464 51.464H44.904V47.464H43.464V51.464ZM43.0784 48.6471L28.9664 80.1831L32.6176 81.8169L46.7296 50.2809L43.0784 48.6471ZM30.792 79H27.096V83H30.792V79ZM35.0218 72.7125L36.0778 69.8325L32.3222 68.4555L31.2662 71.3355L35.0218 72.7125ZM34.2 71.144H53.736V67.144H34.2V71.144ZM51.8582 69.8325L52.9142 72.7125L56.6698 71.3355L55.6138 68.4555L51.8582 69.8325ZM54.792 70.024H33.144V74.024H54.792V70.024ZM70.4302 72.648L68.4314 72.7146L71.8535 74.0531L70.4302 72.648ZM70.2863 68.328L68.8524 66.9337L68.2874 68.3946L70.2863 68.328ZM90.6383 47.4V45.4L89.2044 46.0057L90.6383 47.4ZM94.7182 47.4L96.1656 48.7803L94.7182 45.4V47.4ZM79.8862 62.952L78.4389 61.5717L78.4241 61.5874L79.8862 62.952ZM77.8703 65.112L79.2935 66.5171L79.3324 66.4766L77.8703 65.112ZM67.3582 81H65.3582L67.3582 83V81ZM67.3582 47.4V45.4L65.3582 47.4H67.3582ZM70.9103 47.4H72.9103L70.9103 45.4V47.4ZM70.9103 81V83L72.9103 81H70.9103ZM91.5023 81L89.9917 82.3109L91.5023 83V81ZM77.0063 64.296L75.5387 62.9372L75.4957 65.6069L77.0063 64.296ZM79.4062 61.704L80.9333 60.4125L77.9387 60.3452L79.4062 61.704ZM95.7262 81V83L97.2533 79.7085L95.7262 81ZM72.4291 72.5814L72.2851 68.2614L68.2874 68.3946L68.4314 72.7146L72.4291 72.5814ZM71.7201 69.7223L92.0721 48.7943L89.2044 46.0057L68.8524 66.9337L71.7201 69.7223ZM90.6383 49.4H94.7182V45.4H90.6383V49.4ZM93.2709 46.0197L78.4389 61.5717L81.3336 64.3323L96.1656 48.7803L93.2709 46.0197ZM78.4241 61.5874L76.4081 63.7474L79.3324 66.4766L81.3484 64.3166L78.4241 61.5874ZM76.447 63.7069L69.007 71.2429L71.8535 74.0531L79.2935 66.5171L76.447 63.7069ZM69.3582 81V47.4H65.3582V81H69.3582ZM67.3582 49.4H70.9103V45.4H67.3582V49.4ZM68.9103 47.4V81H72.9103V47.4H68.9103ZM70.9103 79H67.3582V83H70.9103V79ZM93.0128 79.6891L78.5168 62.9851L75.4957 65.6069L89.9917 82.3109L93.0128 79.6891ZM78.4738 65.6548L80.8738 63.0628L77.9387 60.3452L75.5387 62.9372L78.4738 65.6548ZM77.8792 62.9955L94.1992 82.2915L97.2533 79.7085L80.9333 60.4125L77.8792 62.9955ZM95.7262 79H91.5023V83H95.7262V79Z" fill="black"/>
</svg>